<?xml version="1.0" encoding="UTF-8"?>
<svg width="135px" height="119px" viewBox="0 0 135 119" version="1.1" xmlns="http://www.w3.org/2000/svg" xmlns:xlink="http://www.w3.org/1999/xlink">
    <!-- Generator: Sketch 48.2 (47327) - http://www.bohemiancoding.com/sketch -->
    <title>skills</title>
    <desc>Created with Sketch.</desc>
    <defs></defs>
    <g id="Masai-home-page" stroke="none" stroke-width="1" fill="none" fill-rule="evenodd" transform="translate(-835.000000, -888.000000)">
        <g id="skills" transform="translate(835.000000, 888.000000)" fill="#739B4A">
            <path d="M7.94834211,54.7658673 C5.23492105,54.7804441 3.10544737,56.953453 3.15571053,59.6567938 C3.20623684,62.3890232 5.32571053,64.4226245 8.09518421,64.3961212 C10.6851842,64.3714731 12.8557105,62.1536735 12.8351842,59.5529007 C12.8133421,56.8002637 10.7212368,54.7510254 7.94834211,54.7658673 M126.802553,54.7730232 C124.008868,54.7589764 121.939658,56.7748205 121.912553,59.5367336 C121.885447,62.2893706 123.972026,64.4014218 126.714921,64.3977114 C129.399658,64.3940009 131.588868,62.20562 131.5815,59.5330232 C131.574132,56.88958 129.462553,54.7862748 126.802553,54.7730232 M102.644395,110.856743 C102.667816,108.303941 100.264132,105.884981 97.6920263,105.872524 C95.1751842,105.860068 92.9607105,108.084228 92.8959737,110.688976 C92.8291316,113.379331 95.0865,115.706324 97.7625526,115.705794 C100.413605,115.705264 102.620184,113.513437 102.644395,110.856743 M97.9015,3.39338174 C95.0612368,3.3660833 92.8817632,5.45799198 92.8928158,8.20055768 C92.9033421,10.8477114 95.2072895,13.1315042 97.8799211,13.1439608 C100.687553,13.1572125 102.861763,11.1344775 102.897553,8.47619243 C102.933868,5.77815234 100.615447,3.41935501 97.9015,3.39338174 M36.3717632,13.0496089 C39.2262368,13.1460811 41.4859737,11.011767 41.5925526,8.11892739 C41.6878158,5.53061114 39.5528158,3.33454432 36.8065,3.19619688 C34.1207105,3.06076481 31.6572895,5.53379154 31.6241316,8.39800757 C31.5954474,10.9062837 33.6907105,12.9589675 36.3717632,13.0496089 M36.4567632,105.857417 C33.4301842,105.84178 31.5849211,107.645598 31.5499211,110.654257 C31.5162368,113.541796 33.6428158,115.771787 36.4296579,115.771787 C39.2041316,115.771787 41.4178158,113.753823 41.4170263,111.225404 C41.4159737,108.151016 39.3101842,105.872259 36.4567632,105.857417 M107.124658,59.4672949 L107.119395,59.4672949 C107.119395,52.0914151 107.110447,44.7158004 107.133342,37.3399207 C107.135711,36.6065733 106.970184,36.1485955 106.288868,35.7547559 C93.6054474,28.4204864 80.9365,21.0610388 68.2743947,13.6893996 C67.6470263,13.3241835 67.1757105,13.2613706 66.5022895,13.6541501 C53.8457105,21.0355955 41.1741316,28.3908027 28.4930789,35.7293127 C27.8393947,36.1075154 27.5965,36.5220276 27.5975526,37.2879742 C27.6199211,52.0394686 27.6178158,66.790963 27.5978158,81.5424575 C27.5967632,82.324041 27.7775526,82.8066668 28.5059737,83.2275399 C41.1907105,90.5583639 53.8609737,97.9151612 66.5146579,105.300582 C67.2030789,105.702638 67.6599211,105.618622 68.2865,105.253671 C80.9091316,97.9021746 93.5396579,90.5639296 106.184132,83.2508628 C106.885184,82.8453617 107.145711,82.4064664 107.142289,81.594404 C107.112289,74.2187893 107.124658,66.8429096 107.124658,59.4672949 M-7.89473684e-05,57.9915889 C0.523342105,56.8893149 0.909657895,55.6905688 1.59597368,54.7030543 C3.44676316,52.0407938 6.09965789,50.9048606 9.25939474,51.4222058 C12.2430789,51.9109274 14.3778158,53.7303817 15.4151842,56.5900922 C15.7999211,57.6504909 16.2791316,57.8853105 17.2820263,57.857747 C19.6409737,57.7928138 22.0028158,57.8370744 24.5822895,57.8370744 C24.5822895,57.1575287 24.5825526,56.6036089 24.5822895,56.0494241 C24.5801842,49.4681145 24.6141316,42.8862748 24.5441316,36.3054953 C24.5307105,35.0457915 24.8749211,34.335237 25.9875526,33.7018071 C31.7817632,30.4024062 37.5249211,27.0115688 43.2851842,23.6512102 C43.6941316,23.4126802 44.0975526,23.1643439 44.5767632,22.8767826 C42.9804474,20.4957225 41.4407105,18.198678 39.8359737,15.8046312 C37.2636053,16.7062748 34.7680789,16.5591813 32.4278158,15.0829452 C30.7580789,14.0297024 29.6957105,12.4850878 29.0612368,10.646286 C27.8443947,7.11895635 29.3525526,3.10290512 32.5475526,1.25005657 C35.7486053,-0.606237416 40.1915,0.0245420935 42.5657105,2.73238842 C44.7620263,5.23748419 46.3338684,9.35292294 42.4022895,14.0636267 C43.1712368,15.2483261 43.9543947,16.4603238 44.7433421,17.6686111 C45.5343947,18.8803439 46.3309737,20.0886312 47.1725526,21.3703327 C50.1078158,19.6513261 52.9772895,17.9752548 55.8425526,16.2917626 C59.3225526,14.2472949 62.8183421,12.2285354 66.2633421,10.1254953 C67.1001842,9.61451091 67.6788684,9.66884276 68.4949211,10.1562392 C74.6346579,13.8224463 80.8072895,17.4335265 87.1328158,21.158041 C88.7278158,18.7997737 90.3157105,16.4521078 91.9333421,14.0604463 C89.7820263,11.6345955 89.0270263,8.90872695 89.9936053,5.81870245 C91.2767632,1.7167804 95.3922895,-0.600141648 99.5562368,0.397179065 C103.680711,1.38495857 106.369132,5.36708552 105.7415,9.55858886 C105.132026,13.6287069 101.339395,16.6294151 97.1554474,16.3513951 C97.0678158,16.3455644 96.9657105,16.3691523 96.8949211,16.3317826 C94.9354474,15.2978873 94.0541316,16.4900076 93.1878158,18.0205755 C92.3012368,19.5863929 91.2315,21.046992 90.1759737,22.6546846 C90.6651842,22.9610633 91.0959737,23.2459742 91.5404474,23.5070321 C97.4415,26.973669 103.3365,30.4514374 109.257289,33.88362 C110.0315,34.3323216 110.343342,34.8088517 110.337553,35.7343483 C110.295184,42.6246869 110.315447,49.5152904 110.315711,56.405629 C110.315974,56.834718 110.315974,57.2638071 110.315974,57.8211724 C113.104658,57.8211724 115.727553,57.8516512 118.347553,57.7777069 C118.634921,57.7697559 119.024395,57.20709 119.165447,56.826237 C120.347026,53.6333795 122.561237,51.7039363 125.9415,51.3798004 C129.585711,51.0302214 132.521237,52.5247448 134.0465,55.8294463 C135.871237,59.7829497 134.804921,64.6831523 130.210184,66.7472325 C126.042553,68.6194285 121.147553,66.5283149 119.501237,62.2040298 C119.347289,61.7998539 119.230974,61.3811011 119.088079,60.9411457 L110.521237,60.9411457 L110.521237,62.4017448 C110.521237,69.2480878 110.498868,76.0946958 110.545711,82.9407737 C110.552553,83.9206022 110.210184,84.4132993 109.396763,84.8810833 C103.010184,88.5544463 96.6504474,92.2752503 90.1512368,96.0575421 C91.6791316,98.3320588 93.1449211,100.567086 94.6954474,102.74089 C94.8538684,102.962722 95.5436053,102.919257 95.9475526,102.825965 C99.3025526,102.053128 102.712026,103.308591 104.518079,106.025184 C106.385447,108.834008 106.307553,112.729999 104.329395,115.484226 C101.815711,118.983462 96.9178158,119.828123 93.3170263,117.38319 C89.7841316,114.984903 88.7422895,110.148573 90.9851842,106.494558 C91.3062368,105.971117 91.6996579,105.492731 92.1286053,104.897996 C91.3686053,103.728404 90.5833421,102.516671 89.7949211,101.306794 C89.0067632,100.097446 88.2157105,98.8896891 87.3880789,97.6233595 C86.9565,97.8491679 86.6088684,98.0121635 86.2791316,98.206433 C80.4199211,101.658758 74.5528158,105.097832 68.7167632,108.589647 C67.9001842,109.078368 67.3083421,109.106462 66.4722895,108.616945 C60.1888684,104.939607 53.8730789,101.318455 47.3857105,97.5748584 C45.7175526,100.081014 44.0717632,102.553511 42.3830789,105.090411 C44.6504474,107.399647 45.3336053,110.162885 44.4312368,113.238598 C43.2549211,117.247228 39.0507105,119.695607 35.0315,118.824177 C30.7778158,117.902126 28.2043947,114.229293 28.7188684,109.814896 C29.2075526,105.622333 32.6401842,102.676751 36.8959737,102.801847 C37.1580789,102.809533 37.4578158,102.769513 37.6749211,102.880562 C39.2415,103.680698 40.0580789,102.942845 40.8259737,101.585079 C41.8825526,99.7173884 43.1336053,97.9615421 44.3670263,96.056482 C41.6204474,94.4514396 38.9783421,92.9062949 36.3354474,91.3630053 C32.7362368,89.2615555 29.1517632,87.1336022 25.5249211,85.0822437 C24.6912368,84.6107492 24.3862368,84.1002949 24.3925526,83.1247069 C24.4378158,76.1903728 24.4146579,69.2555087 24.4099211,62.3209096 C24.4096579,61.9771612 24.3772895,61.633678 24.3557105,61.2077693 L15.8404474,61.2077693 C15.2804474,63.4438561 14.1175526,65.2945844 12.0843947,66.5163884 C7.82992105,69.0731657 2.3215,67.163335 0.523868421,62.5006022 C0.352552632,62.0564062 0.174657895,61.6148606 -7.89473684e-05,61.1719898 L-7.89473684e-05,57.9915889 Z M49.6695246,80.570925 C48.4271664,79.355529 47.301903,78.2544236 46.0771353,77.0564886 C47.0304325,75.6625135 48.0115593,74.3240964 48.8687654,72.9094855 C49.0937656,72.538041 49.0924529,71.8689647 48.9270502,71.4419622 C47.9159933,68.8328557 46.854528,66.2422684 45.738191,63.6773436 C45.5588735,63.2651566 45.066341,62.8251907 44.639707,62.7185723 C43.1250908,62.3402493 41.5763439,62.100821 39.9879528,61.7986916 L39.9879528,56.7945088 C41.5815947,56.479416 43.1691982,56.2111505 44.7276592,55.824626 C45.1175371,55.7277964 45.5646494,55.3156095 45.7295271,54.9354344 C46.8600414,52.3289735 47.9459233,49.7016122 48.9819219,47.055467 C49.1344599,46.6657677 49.1011168,46.0482809 48.890294,45.6966785 C48.191402,44.530491 47.3966813,43.4193322 46.5890961,42.3243117 C46.1842532,41.775611 46.111266,41.3901447 46.6689094,40.8750433 C47.6615882,39.9586018 48.5802296,38.9612046 49.5773716,37.949521 C50.9864452,38.93078 52.2828873,39.8990755 53.6541545,40.7446144 C54.0261793,40.9739893 54.68674,40.9975353 55.107598,40.8345653 C57.6592629,39.845634 60.1665579,38.7397665 62.7203232,37.756391 C63.3982118,37.4952687 63.7983288,37.2740952 63.8844432,36.4560707 C64.0178155,35.1933182 64.4013923,33.9588737 64.5636445,32.6971794 C64.6618359,31.9349774 65.0133823,31.7183015 65.6847073,31.7833836 C65.728027,31.787352 65.7721344,31.7831191 65.8159793,31.7815317 C69.7630654,31.6532193 69.8234505,31.6444888 70.3829318,35.5991557 C70.5832528,37.0150894 71.1401086,37.5841614 72.5410433,37.9767708 C74.6203916,38.5596001 76.6595707,39.4474688 78.5459492,40.5115356 C79.7463002,41.1888133 80.5218551,41.1433087 81.5226728,40.3173474 C82.5313668,39.4850366 83.6621437,38.8032613 85.0735801,37.8233251 C86.036854,38.9074986 87.0507988,39.9869099 87.9715405,41.1417214 C88.1429818,41.3565454 88.0678942,41.9576293 87.8880516,42.2385938 C86.9917264,43.6399766 86.0221515,44.9940029 85.3749806,45.9342549 C86.5758568,49.1838651 87.6320712,52.0977466 88.7478831,54.9880822 C88.8820431,55.3357161 89.3010633,55.7211824 89.6552351,55.8066358 C91.2186845,56.1844298 92.806813,56.4585156 94.4571645,56.7844555 L94.4571645,61.7926067 C92.9244327,62.0875929 91.3615084,62.4259672 89.7844067,62.6738614 C89.1241086,62.7775696 88.8300594,63.0119712 88.6940616,63.7064454 C88.1309047,66.5790553 87.0951687,69.2680595 85.5112409,71.7459435 C85.3096071,72.0613009 85.3615908,72.7459864 85.571626,73.0878 C86.4395964,74.5010881 87.4138971,75.8482358 88.4837638,77.4170861 C87.4065459,78.423743 86.4159675,79.4184947 85.3374368,80.3045115 C85.0914331,80.5066366 84.4471502,80.4886464 84.1481126,80.3047761 C83.0312505,79.6179741 81.9613838,78.846777 80.9140958,78.0533568 C80.3275726,77.6091578 79.8888616,77.6014856 79.1778925,77.925309 C76.6073244,79.0962586 73.9642942,80.1047675 71.3698346,81.2249213 C71.0618705,81.3577313 70.7518061,81.7678018 70.6717301,82.1048532 C70.3569399,83.4292486 70.0684041,84.7674013 69.9014261,86.11693 C69.8058601,86.8891853 69.4763674,87.0963371 68.7979538,87.0169686 C68.6254624,86.9968619 68.4485077,87.0137939 68.2736534,87.0145875 C64.6584229,87.0299321 64.584648,87.0399855 64.1023547,83.3721033 C63.8978329,81.8156874 63.3029083,81.1362932 61.7454974,80.7047932 C59.6257173,80.117731 57.6078043,79.0989043 55.6195587,78.1149996 C54.7466,77.6829705 54.1385482,77.5157676 53.2989325,78.1684411 C52.1652676,79.0502249 50.9042689,79.7655995 49.6695246,80.570925 Z M49.3303177,33.8419375 C46.9905258,36.3954861 44.6859147,38.9106733 42.2949267,41.520309 C43.0213859,42.5978684 43.9507916,44.0373481 44.947146,45.4281485 C45.4084358,46.0720915 45.4627824,46.5774041 45.0839314,47.3245261 C44.3724372,48.7277609 43.7215907,50.1857599 43.2642391,51.6887344 C42.9518118,52.7160271 42.4185849,53.0602218 41.4413963,53.1819201 C39.8138861,53.3848388 38.2021286,53.7144826 36.6331658,53.982219 L36.6331658,64.3921891 C38.4833132,64.780301 40.245771,65.0988331 41.9746231,65.5477942 C42.4065079,65.6599683 42.8817125,66.1200409 43.078358,66.5425458 C43.7990412,68.0907603 44.3372563,69.7273384 45.0941706,71.2551817 C45.4688209,72.0115634 45.4039725,72.5010023 44.9405824,73.1465327 C43.923487,74.5624664 42.9838421,76.0350163 41.908462,77.639847 C44.4527757,80.0357169 46.9304032,82.3683566 49.4518756,84.7425325 C50.6876701,83.8922315 52.0830914,82.9824041 53.4197027,81.9916209 C54.0973288,81.4894829 54.6213665,81.4132892 55.4126741,81.8400271 C56.7130544,82.5413799 58.0845842,83.1715656 59.4983835,83.5771386 C60.6659166,83.9120736 61.0639332,84.5734776 61.2067572,85.6695563 C61.4136418,87.2587779 61.7171427,88.8353005 61.9823121,90.4345754 C65.2782892,90.4345754 68.3820841,90.4615607 71.4843038,90.3951558 C71.8182597,90.3880126 72.3412473,89.8882557 72.4334002,89.5276583 C72.8138265,88.0402929 72.996032,86.5000152 73.3971992,85.0195285 C73.5247956,84.5486088 74.0328182,84.0485874 74.4925327,83.8276784 C76.0236892,83.0911389 77.6475237,82.5464066 79.1634526,81.7820881 C79.8725839,81.4244008 80.3307231,81.4871019 80.9282732,81.9172791 C82.3433853,82.9361058 83.7994542,83.8972581 85.392046,84.9864583 C87.7378764,82.4448149 90.0545645,79.9346544 92.4342631,77.356237 C91.6545075,76.1953406 90.7337657,74.7503051 89.732423,73.364796 C89.2635195,72.7158264 89.2062849,72.2131593 89.58041,71.4657728 C90.2848155,70.0593633 90.935137,68.6040099 91.3953766,67.1026227 C91.7062286,66.0882935 92.2714858,65.7335164 93.2045671,65.591976 C94.6945042,65.3660404 96.1744646,65.0742289 97.6830423,64.8059634 C97.6830423,61.501589 97.7092967,58.3739416 97.6460236,55.2484108 C97.6389349,54.9023642 97.1758074,54.353928 96.8302995,54.2634479 C95.397597,53.888035 93.9312889,53.6385534 92.4720694,53.3713462 C91.7256569,53.2348324 91.3229144,52.8996329 91.0601079,52.1019796 C90.5400083,50.5241342 89.8762971,48.9833274 89.1406489,47.4930519 C88.798029,46.7993713 88.7982915,46.3435317 89.2448788,45.7255158 C90.2890162,44.2812739 91.2564908,42.7806805 92.4426645,41.0253142 C91.1667008,39.8644179 89.9490218,38.7895041 88.7691492,37.6735832 C87.5627596,36.532529 86.3933887,35.3509969 85.1767599,34.1565012 C83.7164903,35.1538985 82.2570083,36.203679 80.7350409,37.1508095 C80.3848072,37.3688083 79.7623154,37.3897086 79.3635111,37.2378503 C77.7357384,36.6190407 76.1736018,35.8166253 74.5300765,35.2509926 C73.7818261,34.9933096 73.4932903,34.6464693 73.384072,33.9123109 C73.1207404,32.1429228 72.7920353,30.3833236 72.4801331,28.5644625 C69.2072598,28.5644625 66.0606702,28.5411811 62.9159185,28.600972 C62.605854,28.6067924 62.1148968,29.0732145 62.0329831,29.4070913 C61.6659466,30.8986896 61.4603746,32.4305013 61.0983265,33.9234225 C60.9940965,34.3538642 60.6446505,34.8829874 60.2665872,35.0586563 C58.7262417,35.7750891 57.1509778,36.4322602 55.5439461,36.9775217 C55.0251592,37.1534551 54.2574806,37.110067 53.7967159,36.8365103 C52.3007403,35.9486416 50.8940297,34.9075916 49.3303177,33.8419375 Z M67.3999097,46.8206123 C74.3294241,46.7155466 80.1640334,52.5234142 80.2574562,59.618934 C80.3498323,66.6468926 74.6110011,72.6172794 67.6639535,72.720483 C60.7671501,72.8226228 54.8317907,66.9538438 54.7344426,59.9357268 C54.6352626,52.7886051 60.2948022,46.9283378 67.3999097,46.8206123 Z M51.5578045,59.6976667 C51.5455051,68.7910291 58.8251589,76.171955 67.7945361,76.1599855 C76.2766491,76.1490799 83.4361878,68.7607064 83.4422066,60.0123316 C83.4487489,51.0272266 76.1858431,43.593369 67.3297771,43.520488 C58.8432155,43.4505329 51.5695805,50.9109895 51.5578045,59.6976667 Z" id="Combined-Shape"></path>
        </g>
    </g>
</svg>