<?xml version="1.0" encoding="UTF-8"?>
<svg width="107px" height="108px" viewBox="0 0 107 108" version="1.1" xmlns="http://www.w3.org/2000/svg" xmlns:xlink="http://www.w3.org/1999/xlink">
    <!-- Generator: Sketch 48.2 (47327) - http://www.bohemiancoding.com/sketch -->
    <title>pay</title>
    <desc>Created with Sketch.</desc>
    <defs></defs>
    <g id="Masai-home-page" stroke="none" stroke-width="1" fill="none" fill-rule="evenodd" transform="translate(-1187.000000, -897.000000)">
        <g id="pay" transform="translate(1187.000000, 897.000000)" fill="#9578AF">
            <path d="M87.3647867,57.7943851 C91.6082283,57.7943851 95.6746742,57.871912 99.7362158,57.7621195 C101.786603,57.706551 103.330524,55.9767585 103.300207,54.1667502 C103.270782,52.4436797 101.777241,50.7362938 99.8610492,50.6825178 C95.7335242,50.5660033 91.601095,50.6466672 87.3647867,50.6466672 L87.3647867,57.7943851 Z M78.6389367,82.910883 L78.6389367,82.8934058 C76.86452,82.8934058 75.08832,82.8463519 73.3156867,82.9055054 C71.1168367,82.9789992 69.4850867,84.5017544 69.4436242,86.4134888 C69.4026075,88.3220863 71.0160783,89.9989992 73.1765867,90.0482938 C76.6500742,90.1276133 80.12802,90.1356797 83.6010617,90.0433643 C85.7700408,89.9860033 87.3251075,88.2808581 87.2448575,86.3314805 C87.1690658,84.4901029 85.609095,83.0135054 83.5190283,82.9247751 C81.8948575,82.8557627 80.2657825,82.910883 78.6389367,82.910883 L78.6389367,82.910883 Z M78.3058992,79.3204432 C79.1231117,79.3204432 79.9403242,79.3208913 80.7575367,79.3204432 C81.6492033,79.3195469 82.5426533,79.3576382 83.431645,79.3083436 C85.6634867,79.1855552 87.2778492,77.6515967 87.24887,75.7282108 C87.2198908,73.7981029 85.6113242,72.2072315 83.3959783,72.1601776 C79.9804492,72.0880282 76.55957,72.0866838 73.1449325,72.1861693 C70.9763992,72.2489079 69.4926658,73.7555303 69.457445,75.6349992 C69.4195492,77.6229162 70.9576742,79.1945178 73.1805992,79.2989328 C74.8854658,79.3787004 76.59702,79.3146174 78.3058992,79.3204432 L78.3058992,79.3204432 Z M78.4815575,68.5648083 C80.0415283,68.5648083 81.6023908,68.5966257 83.16147,68.5576382 C85.5711992,68.4971402 87.2176617,67.0496714 87.2528825,65.0209743 C87.2881033,62.9927253 85.6750783,61.4569743 83.2501908,61.4058871 C79.9826783,61.3368747 76.7124908,61.3525593 73.4440867,61.4036465 C71.1110408,61.4403934 69.4026075,63.0568083 69.4462992,65.0483104 C69.4886533,66.9716963 71.11327,68.4702523 73.3562575,68.550468 C75.0624617,68.6114141 76.7731242,68.5625676 78.4815575,68.5648083 L78.4815575,68.5648083 Z M83.7058325,14.6961112 C83.7058325,13.1074805 83.70717,11.7698041 83.7053867,10.4316797 C83.7000367,6.24567137 81.5988242,4.06729793 77.4436575,4.03189544 C73.2153742,3.99559668 68.9861992,4.02069212 64.75747,4.02158838 C52.8871575,4.02427718 41.016845,4.01710705 29.1465325,4.03906556 C26.03417,4.04489129 23.9338492,5.3301361 23.4238158,7.95305726 C22.9967075,10.1498041 23.1144075,12.4536548 22.9913575,14.6961112 L83.7058325,14.6961112 Z M83.70717,93.7776548 L23.0778492,93.7776548 C23.0778492,95.5356797 23.0314825,97.1628498 23.0872117,98.786883 C23.2044658,102.184178 25.3248492,104.300709 28.7448367,104.388991 C31.3400325,104.455763 33.9379033,104.415879 36.5348825,104.415879 C50.1862992,104.416775 63.8381617,104.43246 77.4895783,104.404227 C81.5466617,104.395713 83.6634783,102.220924 83.7049408,98.1823519 C83.7192075,96.7743187 83.70717,95.3658373 83.70717,93.7776548 L83.70717,93.7776548 Z M74.2568408,57.7168581 C76.57562,49.0284598 70.7508075,38.225771 61.8368158,34.5071651 C51.6620075,30.2628996 40.241095,34.1007087 34.8331367,43.5814058 C29.5317325,52.8747834 31.9548367,64.8282772 40.4475158,71.2822855 C48.7346658,77.5803436 60.7298117,77.0309328 67.5925242,70.0391651 C63.1154658,63.3350988 68.0142825,57.1920946 74.2568408,57.7168581 L74.2568408,57.7168581 Z M0.000178333333,47.0557793 L7.02116167,47.0557793 C7.02116167,44.4548166 7.02249917,42.0174224 7.02116167,39.5804763 C7.01804083,35.1000448 7.04256167,30.6191651 6.99530333,26.1391817 C6.97747,24.4300033 7.70551583,23.7811071 9.39656167,23.706717 C13.111245,23.5431485 16.3738533,24.621356 19.5067242,27.3710988 C19.5067242,21.3235469 19.5031575,15.7537046 19.5076158,10.1838622 C19.5129658,4.06640166 23.0934533,0.452658921 29.1616908,0.451314523 C45.3579242,0.447281328 61.5541575,0.445936929 77.749945,0.452658921 C83.5671783,0.455347718 87.2466408,4.10359668 87.2524367,9.88271701 C87.2644742,21.0089577 87.256895,32.1356465 87.2573408,43.2618871 L87.2573408,47.0521942 C91.5761283,47.0521942 95.7112325,47.0132066 99.8445533,47.0647419 C103.030924,47.1041776 105.547207,49.0109826 106.550778,51.999132 C107.493716,54.807132 106.662682,58.0699867 104.160666,59.7823021 C102.888703,60.6530241 101.211478,61.0751651 99.6573033,61.3368747 C98.1401325,61.5918622 96.5462783,61.3825842 94.9863075,61.3798954 C93.430795,61.3776548 91.8748367,61.3794473 90.1053242,61.3794473 C91.2662742,64.6517129 91.2034117,67.6282108 88.58637,70.2462025 C91.4205325,73.7416382 91.8413992,77.3181859 88.6189158,81.0076631 C88.9671117,81.5109162 89.3505283,82.0253726 89.6915908,82.5671651 C91.5631992,85.5373892 91.2511158,89.2174556 88.6599325,91.5343021 C87.5128033,92.5596299 87.144545,93.579132 87.2403992,95.0082274 C87.3295658,96.3463519 87.2626908,97.6952315 87.2555575,99.0391817 C87.2292533,104.078435 83.4191617,107.967331 78.3767867,107.974949 C61.7351658,108.000045 45.0930992,107.998252 28.4510325,107.976294 C23.2878367,107.969124 19.5437283,104.116526 19.5089533,98.8805427 C19.4978075,97.2448581 19.50717,95.6091734 19.50717,93.7207419 L0.0166741667,93.7207419 L0.0166741667,90.1674971 L19.5067242,90.1674971 C19.5067242,88.9772564 19.50717,88.0361776 19.5067242,87.0946506 C19.5067242,70.3680946 19.5111825,53.6410905 19.5031575,36.9140863 C19.5004825,31.5508332 16.2080033,27.9379867 10.5735617,27.3881278 C10.5735617,28.2646755 10.57267,29.1161278 10.5735617,29.9680282 C10.5784658,35.9416382 10.5334367,41.9165925 10.6168075,47.8893062 C10.6453408,49.9287585 9.86468667,50.7264349 7.85531583,50.6520448 C5.27527833,50.5565925 2.689445,50.6287419 0.000178333333,50.6287419 L0.000178333333,47.0557793 Z M65.4868533,76.2726921 C54.0632658,82.1763934 42.48007,79.0555967 35.4091533,71.6631983 C27.8250825,63.7343851 26.1915492,51.8194307 31.2749408,42.4651071 C36.68067,32.5174556 47.1323408,27.5162938 58.2844158,29.5933892 C63.4052575,30.5470158 67.7788825,33.0041278 71.3544658,36.7621693 C76.9006325,42.5914805 79.017895,49.6724266 78.2390242,57.6801112 L83.560045,57.6801112 L83.560045,18.5195801 L23.2298783,18.5195801 L23.2298783,89.9461195 L66.6371033,89.9461195 C65.2064242,86.5936382 65.7797658,83.6883934 67.9126325,81.3262855 C67.0570783,79.5440614 66.2960408,77.9590158 65.4868533,76.2726921 Z M55.2690667,25.3858257 L55.2690667,22.0674025 L80.01995,22.0674025 L80.01995,25.3858257 L55.2690667,25.3858257 Z M48.1812083,25.3696929 L48.1812083,22.058888 L51.4799292,22.058888 L51.4799292,25.3696929 L48.1812083,25.3696929 Z M40.9841208,25.3634191 L40.9841208,22.0933942 L44.3465958,22.0933942 L44.3465958,25.3634191 L40.9841208,25.3634191 Z M33.9301458,25.4216763 L33.9301458,22.0956349 L37.2315417,22.0956349 L37.2315417,25.4216763 L33.9301458,25.4216763 Z M26.7424208,86.3516017 L26.7424208,83.0676846 L30.0487208,83.0676846 L30.0487208,86.3516017 L26.7424208,86.3516017 Z M51.5278563,39.7721427 C50.8827354,39.9885909 50.3142979,40.1588813 49.7610188,40.3686075 C46.2732646,41.6919436 44.3031271,44.7567237 44.4805688,48.5654041 C44.6357188,51.8950307 47.0784396,54.9275452 50.4886188,55.7655535 C51.6883563,56.0604249 52.9906354,55.9174705 54.2429813,56.0138191 C56.7244896,56.2042755 58.7080021,58.1850224 58.7222688,60.4530224 C58.7365354,62.7295369 56.7864604,64.7273129 54.3129771,64.9710971 C50.4614229,65.3502174 48.7538813,63.9802755 47.7984604,59.7382506 L44.4997396,59.7382506 C44.2781604,64.9204581 47.2335896,67.4201427 51.6718604,68.7623004 L51.6718604,71.9910971 L55.1600604,71.9910971 L55.1600604,68.7242091 C55.8096396,68.4898357 56.3633646,68.2998274 56.9104021,68.0914456 C60.8234813,66.6014041 62.9688313,62.8608398 62.2135896,58.8509477 C61.5221021,55.179844 58.1377813,52.4811884 54.1810104,52.4301012 C53.3664729,52.4197942 52.5341021,52.4507154 51.7414104,52.2970058 C49.6303896,51.8883087 48.1368479,50.1302838 48.0606104,48.0944166 C47.9848188,46.080956 49.3784938,44.2700515 51.4663313,43.6686573 C55.3325979,42.5545992 57.7557021,44.1737029 59.0642229,48.7325577 L62.0954438,48.7325577 C62.5996813,44.3278606 60.9648104,42.1781676 55.2336229,39.631429 C55.1720979,38.5729394 55.1092354,37.4884581 55.0463729,36.4030805 L51.6834521,36.4030805 C51.6317354,37.5207237 51.5844771,38.5442589 51.5278563,39.7721427 Z M35.6800417,55.9144232 L38.9502292,55.9144232 L38.9502292,52.5350539 L35.6800417,52.5350539 L35.6800417,55.9144232 Z M67.765775,55.8682656 L71.0417583,55.8682656 L71.0417583,52.5256432 L67.765775,52.5256432 L67.765775,55.8682656 Z" id="Combined-Shape"></path>
        </g>
    </g>
</svg>