<?xml version="1.0" encoding="UTF-8"?>
<svg width="135px" height="115px" viewBox="0 0 135 115" version="1.1" xmlns="http://www.w3.org/2000/svg" xmlns:xlink="http://www.w3.org/1999/xlink">
    <!-- Generator: Sketch 48.2 (47327) - http://www.bohemiancoding.com/sketch -->
    <title>world class</title>
    <desc>Created with Sketch.</desc>
    <defs></defs>
    <g id="Masai-home-page" stroke="none" stroke-width="1" fill="none" fill-rule="evenodd" transform="translate(-270.000000, -872.000000)">
        <g id="world-class" transform="translate(257.000000, 863.000000)" fill="#BBA47E">
            <path d="M144.001992,72.2548077 L139.832954,72.2548077 C139.833523,59.2538471 139.832669,38.6850962 139.832669,38.6850962 L142.508333,38.6850962 C143.066178,38.6850962 144.001992,38.8766502 144.001992,40.1591076 L144.001992,72.2548077 Z M141.115538,79.9286391 C141.092515,80.2522 140.917186,82.0715717 139.832669,82.8052885 L139.833333,76.7307692 L141.115538,76.7307692 L141.115538,79.9286391 Z M128.290623,119.891827 L128.289796,119.715468 C128.285662,118.979823 128.281803,118.282729 128.308537,117.582471 C128.317356,117.575278 128.326451,117.568374 128.334168,117.562907 C131.513789,117.094246 134.322174,116.705853 136.917794,116.375 C136.983938,116.380179 137.153158,116.461597 137.262021,116.569197 C138.20265,117.497312 138.837638,118.589128 139.191235,119.891827 L128.290623,119.891827 Z M128.115922,113.73673 L128.123582,84.2159587 C128.124402,83.8967348 128.125497,83.5348354 128.034947,83.1771474 C127.832237,82.3786665 127.2397,81.9019364 126.450198,81.9019364 C126.383722,81.9019364 126.315332,81.9053055 126.245026,81.9120437 C125.345005,81.9996408 124.773532,82.5886749 124.716357,83.487387 C124.700764,83.7313673 124.702679,83.9688901 124.704594,84.1988324 L124.705688,84.4186673 L124.716084,113.800181 C124.54456,113.778001 124.374404,113.756102 124.205068,113.734484 C122.987714,113.5781 121.835467,113.43014 120.690607,113.245961 C120.6586,113.194863 120.62632,113.126639 120.620849,113.09744 C120.583644,112.357637 120.588021,111.593971 120.592672,110.855292 C120.594039,110.605415 120.595681,110.355539 120.595681,110.105663 L120.596502,77.3701923 L135.642455,77.3701923 L135.647926,85.0585189 C135.652851,91.6260524 135.657775,98.1935858 135.66051,104.761119 C135.660784,105.607891 135.656133,106.454382 135.650936,107.301434 C135.641361,108.925349 135.631239,110.604573 135.661057,112.259091 C135.670906,112.801238 135.670906,112.801238 135.178493,112.852898 C133.493072,113.031461 131.792332,113.281618 130.147399,113.523352 C129.471152,113.623022 128.794631,113.722411 128.118111,113.817308 C128.116743,113.789793 128.115922,113.763121 128.115922,113.73673 L128.115922,113.73673 Z M124.755983,119.98902 C124.755423,120.062807 124.755142,120.136883 124.754582,120.211538 L120.589641,120.211538 L120.589641,117.334135 L121.042383,117.392875 C122.308937,117.556074 123.50737,117.711172 124.716456,117.895495 C124.724586,117.909384 124.731875,117.923563 124.73664,117.935137 C124.764113,118.59922 124.760188,119.274588 124.755983,119.98902 L124.755983,119.98902 Z M26.940239,111.579327 L117.38247,111.579327 L117.38247,73.2139423 L26.940239,73.2139423 L26.940239,111.579327 Z M117.061753,119.890154 L115.592917,119.891827 C114.921342,119.891827 114.12703,119.889597 113.307526,119.873708 C113.297075,119.86646 113.285551,119.857262 113.276976,119.848899 C112.768873,118.441752 112.281137,117.034326 111.765262,115.544947 L111.609562,115.096154 L117.061753,115.096154 L117.061753,119.890154 Z M92.3665339,119.891827 L92.3665339,115.130693 C92.4838528,115.123451 92.5983917,115.118716 92.7112626,115.118716 L98.3461868,115.11788 C101.239684,115.11788 104.326952,115.116209 107.474825,115.096154 C107.928811,115.096154 108.016661,115.156876 108.147324,115.560485 C108.53431,116.756548 108.962163,117.921414 109.415036,119.154524 C109.504554,119.398249 109.594629,119.643924 109.685259,119.891827 L92.3665339,119.891827 Z M88.1972112,119.891827 L79.8585657,119.891827 C79.906785,118.734405 80.110347,117.478176 80.8613073,116.391571 C81.4725413,115.507899 82.2035015,115.096154 83.1615855,115.096154 L83.238298,115.096994 C83.8930937,115.112389 84.5977525,115.119386 85.4569322,115.119386 C86.0015907,115.119386 86.548441,115.116867 87.099127,115.114068 C87.4632372,115.112109 87.8292653,115.110149 88.1972112,115.10903 L88.1972112,119.891827 Z M76.7570744,119.891827 L67.6737111,119.891827 L67.6728881,119.195973 C67.6701447,117.792273 67.66795,116.464992 67.6940122,115.132411 C67.701968,115.120976 67.7112955,115.108147 67.7211717,115.096154 L67.7340657,115.096154 C71.0316201,115.096154 74.386237,115.125717 77.6302954,115.154723 L77.9342629,115.157233 C77.2124771,116.59468 76.8177033,118.181617 76.7570744,119.891827 L76.7570744,119.891827 Z M63.501992,119.891827 L55.1633466,119.891827 C55.2637294,118.319237 55.6119063,117.211276 56.292034,116.261356 C56.861053,115.466405 57.5637324,115.096154 58.5032051,115.096154 L58.5590344,115.096712 C59.2883909,115.10844 60.0171973,115.11207 60.7553544,115.11207 C61.2888957,115.11207 61.8271124,115.110115 62.3730296,115.10816 C62.7454085,115.106764 63.1213626,115.105647 63.501992,115.10481 L63.501992,119.891827 Z M51.6683201,119.891827 L34.3167331,119.891827 L34.47752,119.440956 C35.0042646,117.961363 35.5028157,116.562602 36.0326308,115.152932 C36.0613827,115.134472 36.0985088,115.115173 36.1043708,115.111817 C40.1519579,115.098951 44.1523697,115.096154 48.9137278,115.096154 L52.9183267,115.096434 L51.6683201,119.891827 Z M32.2721157,115.435892 C31.729891,116.964853 31.2173402,118.410637 30.6797015,119.877496 C29.8434344,119.890141 29.0311764,119.891827 28.3443584,119.891827 L26.940239,119.890422 L26.940239,115.096154 L32.3924303,115.096154 L32.2721157,115.435892 Z M19.8844622,69.0576923 L124.758964,69.0576923 L124.758964,63.6225962 L19.8844622,63.6225962 L19.8844622,69.0576923 Z M24.7179333,35.6577518 C24.7087922,35.6036178 24.7013132,35.5472164 24.6952191,35.4879808 L54.3920415,35.4879808 L57.7290837,55.2636146 C57.6889184,55.2655986 57.6501381,55.2670157 57.6121889,55.2670157 L56.9745304,55.2684328 C49.5082205,55.2854383 42.0416337,55.3024437 34.5753238,55.3100962 L34.4334988,55.3100962 C33.5279795,55.3100962 32.6219062,55.3015934 31.7161099,55.2936576 C30.8067126,55.2851548 29.8973153,55.2769355 28.988195,55.2769355 C28.7386162,55.2769355 28.4887605,55.2775024 28.2283787,55.2789195 C28.12755,55.2789195 28.0721496,55.2707002 28.0452804,55.2644649 C28.0328153,55.2349888 28.0109322,55.1692344 27.989049,55.0388593 C27.2070726,50.3204147 26.3932409,45.5271462 25.6060015,40.8917448 C25.3096094,39.146986 25.0132173,37.4025106 24.7179333,35.6577518 L24.7179333,35.6577518 Z M28.938256,58.8269231 L64.1434263,58.8269231 L64.1434263,60.0863646 L49.7792232,60.0845039 C43.7416473,60.0845039 36.5974068,60.087162 29.3752006,60.1057692 C29.0484738,60.1057692 28.9172221,60.0730737 28.870667,60.0560614 C28.8630948,60.015923 28.8549617,59.9130518 28.8967491,59.6966767 C28.9534004,59.4034804 28.9497546,59.1116132 28.938256,58.8269231 L28.938256,58.8269231 Z M59.0229617,34.1642509 C60.7871526,32.3098524 63.0173561,31.1737574 65.8397258,30.6923077 C65.9258794,30.7138138 66.1216831,30.8336744 66.2372072,30.9704531 C68.8872697,34.1020266 72.206701,35.69147 76.1135432,35.6943375 C79.9073787,35.6943375 83.1084886,34.2000943 85.6276423,31.2531865 C86.0122566,30.8029924 86.2287595,30.7175415 86.4936539,30.7175415 C86.6105766,30.7175415 86.744842,30.7361801 86.9037227,30.7743176 C91.2220322,31.8074701 93.8228641,33.9612334 95.0899934,37.5518902 C95.9783825,40.0692497 96.1316688,42.5719851 95.5462159,44.9907033 C94.7839803,48.1400552 93.940626,51.1437391 93.0399292,53.9180247 C91.7417511,57.9167237 88.9428778,60.0369374 84.7207917,60.2195958 C81.460661,60.3609625 78.1350759,60.3821818 74.9191409,60.4025409 C73.9006822,60.4088494 72.8822235,60.4154446 71.8539747,60.4254808 C71.1957947,60.4254808 70.6738381,59.7292569 70.6657263,58.8403386 C70.6562158,57.7859667 71.2033471,57.1422177 72.1672605,57.073685 C72.7868392,57.0295258 73.423201,57.004292 74.0383042,56.9799184 C74.7043163,56.9535376 75.392706,56.9262965 76.0732635,56.8749687 C76.4961994,56.8431397 76.919415,56.8130311 77.3426306,56.7832094 C78.9971714,56.6662162 80.7076561,56.5452086 82.3834556,56.3037669 C84.8323998,55.9507803 86.6564506,54.4766095 87.3881968,52.2597618 C88.2522504,49.6408935 88.954626,46.9282587 89.6340647,44.3048024 C89.7702881,43.7774731 89.9067912,43.2504305 90.0449726,42.7236747 C90.1607765,42.2800757 90.103434,41.8301683 89.8827353,41.4565359 C89.6363024,41.039031 89.211968,40.7428204 88.6886128,40.6226731 C88.546795,40.5899838 88.4052569,40.5736392 88.2684741,40.5736392 C87.4888959,40.5736392 86.8687577,41.1035492 86.6500171,41.9569109 C86.4698777,42.6600167 86.3059621,43.3760261 86.1476409,44.0682354 C85.9677812,44.8530644 85.7820475,45.6648476 85.5739362,46.4508235 C85.1854058,47.9204063 84.7898825,49.2380127 84.3658277,50.4787708 C83.9045703,51.8264857 82.9991182,52.591529 81.5968844,52.8174864 C79.7431833,53.1159909 77.8794123,53.2673938 76.0581587,53.2673938 C74.1910311,53.2673938 72.3124349,53.1082487 70.4749576,52.7942598 C69.0917447,52.5579795 68.2061527,51.8138688 67.8425174,50.582 C67.3090923,48.7772089 66.8165063,46.922237 66.3398643,45.1283423 C66.1435012,44.3888196 65.9471381,43.6490101 65.7474184,42.9103476 C65.718887,42.8042508 65.6948311,42.6967204 65.6704955,42.5891899 C65.6335725,42.4248834 65.5958104,42.2608636 65.5474189,42.0999981 C65.1656018,40.8340063 64.4002893,40.568191 63.8254657,40.568191 C63.7135779,40.568191 63.5963755,40.5788007 63.477215,40.5991597 C63.0330204,40.6757214 62.6500844,40.9329343 62.3994557,41.3240584 C62.1029531,41.7857224 62.01624,42.3987894 62.1619739,43.0061213 C62.2738617,43.4755276 62.3851901,43.9455074 62.495959,44.4154871 C62.9423913,46.3028616 63.4036487,48.2547543 63.939871,50.1570397 C64.4570724,51.992226 65.2478394,54.038172 67.190771,55.2949879 C67.4640569,55.4719114 67.7412589,55.62016 68.0318875,55.7718496 C67.8131469,56.1440484 67.639441,56.4758156 67.5060148,56.7932455 C67.3071343,55.724823 66.6984647,55.4303329 65.2156716,55.4283257 L62.1507851,55.4280389 L61.9513451,54.2649896 C61.7379191,53.0233713 61.5267309,51.7940832 61.3194588,50.5642216 C61.0836552,49.164892 60.8489706,47.7655624 60.6142859,46.3659461 C60.0025394,42.7208072 59.3703733,38.9512198 58.7267388,35.2470108 C58.6389069,34.7414743 58.7054801,34.4985989 59.0229617,34.1642509 L59.0229617,34.1642509 Z M76.3135338,13.384992 L76.322241,12.7884615 L76.322241,13.384992 C78.7911777,13.384992 81.1261344,14.3611584 82.896803,16.1339145 C84.6655054,17.904426 85.636789,20.2352721 85.6314522,22.6971529 C85.6210597,27.724171 81.3612311,31.9711538 76.3284204,31.9711538 C73.8639779,31.9708733 71.5337961,30.9938652 69.7673407,29.2199866 C68.0003236,27.4455469 67.0281974,25.1051608 67.0298827,22.6303729 C67.0329723,17.5374167 71.1978634,13.389762 76.3135338,13.384992 L76.3135338,13.384992 Z M109.685259,40.3402975 C109.685259,39.0608623 110.856048,38.7568749 111.397353,38.6850962 L113.85409,38.6850962 L113.854368,39.3462616 C113.854924,41.3217507 113.855202,43.2334682 113.844354,45.1426119 C113.84352,45.1431839 113.772866,45.2853116 113.772866,45.2853116 L113.772866,50.1754192 L113.791503,50.1791368 L113.791503,60.0128286 L113.772866,60.0128286 L113.772866,60.1057692 L109.685259,60.1057692 L109.685259,40.3402975 Z M117.061753,38.7178613 C118.497551,40.6577857 120.04565,42.7976906 121.929545,45.4463032 C121.950065,45.4799157 121.984726,45.6180379 121.971693,45.7846883 C121.892666,46.7744226 121.80837,47.763592 121.72352,48.7527613 C121.571566,50.5330967 121.414344,52.3738782 121.293724,54.1895209 C121.254903,54.7787291 121.509731,55.5117087 121.913463,55.9721159 C122.587273,56.7406852 123.317372,57.4671683 124.023625,58.1702073 C124.277066,58.4224426 124.53023,58.6749605 124.781453,58.929173 C125.167438,59.3203779 125.692899,59.7689219 126.335376,59.7689219 C126.966761,59.7689219 127.473643,59.3407149 127.844655,58.9675874 C128.057612,58.7534839 128.271956,58.5407927 128.486577,58.3278191 C129.2347,57.5849534 130.008333,56.816949 130.714864,55.9969722 C131.092807,55.5577494 131.455777,54.7936994 131.413629,54.0765375 C131.286909,51.9236395 131.090866,49.6168016 130.796664,46.815944 C130.69268,45.8295992 130.836038,45.2076258 131.30826,44.5975156 C132.180331,43.4705066 133.023841,42.2968919 133.839068,41.161974 C134.404181,40.3756098 134.988427,39.562412 135.574892,38.7754828 C135.597352,38.7455423 135.627576,38.7153192 135.663347,38.6850962 L135.663347,73.2139423 L120.514821,73.2139423 L120.514821,72.5049717 C120.520645,72.5046892 120.526745,72.5046892 120.532291,72.5046892 C121.505849,72.4931084 122.479408,72.4835049 123.452966,72.4739013 L125.637719,72.4513046 C126.694464,72.4394413 127.354964,71.7547621 127.361896,70.6647551 C127.381583,67.6382132 127.380752,64.6464137 127.3594,61.7729643 C127.354409,61.072185 127.083776,59.8960282 125.330206,59.8909439 C124.20303,59.8875544 123.076131,59.8864246 121.948955,59.8864246 L117.061753,59.8881193 L117.061753,38.7178613 Z M124.758964,37.6449721 L123.469312,40.9230769 L120.589641,36.8908997 L121.444616,35.4879808 L124.758964,37.6449721 Z M128.427707,54.7270168 C128.030919,55.0658918 127.678359,55.4229159 127.270198,55.8363718 C127.233552,55.8735205 127.196274,55.9112363 127.158365,55.9495192 C127.104343,55.8964902 127.050638,55.8440284 126.997564,55.7921337 C126.466197,55.273187 125.964842,54.7828815 125.507083,54.2820837 C125.449586,54.2191295 125.390195,54.0359385 125.401883,53.9026571 C125.465382,53.188609 125.526669,52.4745609 125.588273,51.7602293 C125.820469,49.0554674 126.060564,46.2585429 126.423865,43.5276918 C126.509162,42.8865232 126.832657,42.2428023 127.178899,41.5625 C127.185533,41.5780968 127.192167,41.5936935 127.198802,41.6092903 C127.547886,42.4293963 127.877385,43.20413 127.981952,43.9882217 C128.232788,45.8677731 128.396431,47.7955327 128.554704,49.6594874 C128.663694,50.9401233 128.77616,52.26443 128.916109,53.5671849 C128.970763,54.0759229 128.84724,54.3685749 128.427707,54.7270168 L128.427707,54.7270168 Z M133.09761,36.8935658 L130.217679,40.9230769 L130.202554,40.8851258 C129.755291,39.7781265 129.331526,38.7308443 128.928287,37.6729581 C129.871428,37.0311384 130.817001,36.4135963 131.81686,35.7606146 L132.234144,35.4879808 L133.09761,36.8935658 Z M118.665339,23.9783654 C118.665339,19.2185952 122.549741,15.3461538 127.32456,15.3461538 C132.099379,15.3461538 135.984064,19.2185952 135.984064,23.9783654 C135.984064,28.7381355 132.099379,32.6105769 127.32456,32.6105769 C122.549741,32.6105769 118.665339,28.7381355 118.665339,23.9783654 L118.665339,23.9783654 Z M142.365999,35.2386877 L139.711485,35.2386877 L139.348339,35.2030066 C138.855397,35.1540159 138.335101,35.129379 137.801407,35.129379 C137.492412,35.129379 137.170856,35.1375913 136.845392,35.1540159 C136.817758,35.1554319 136.790961,35.1559982 136.765002,35.1559982 C136.444563,35.1559982 136.292158,35.0597159 136.113237,34.7434002 C135.807033,34.2030865 135.482406,33.6673037 135.165037,33.1550251 C137.772657,30.7927101 139.257343,27.447466 139.257343,23.8943652 C139.257343,17.0447279 133.764648,11.471964 127.012803,11.471964 C120.261517,11.471964 114.768543,17.0447279 114.768543,23.8943652 C114.768543,27.3002106 116.154975,30.5525707 118.588978,32.8978947 C118.549342,32.9613277 118.509705,33.0247608 118.470069,33.0879107 C118.109435,33.6627727 117.736798,34.2568913 117.40603,34.8730981 C117.297449,35.075291 117.2299,35.1418391 116.844423,35.1542991 C116.592928,35.1625114 116.340317,35.1681751 116.087147,35.1735556 C115.539218,35.1854493 114.972586,35.1976262 114.411817,35.2386877 L111.328003,35.2392541 L111.193463,35.2457673 C109.410667,35.4032172 106.039351,36.7310637 106.039351,40.6304975 L106.039351,60.2032768 L102.372158,60.2032768 L102.372158,60.0970831 L92.9778017,60.0970831 C94.2316479,58.8533421 95.1977124,57.3176391 95.964479,55.3699045 C96.589169,53.7820958 97.1666863,52.0122002 97.7299681,49.9594046 C98.5391622,47.0123161 99.2018138,44.340765 99.1166795,41.4891093 C98.9131947,34.723011 95.3484419,29.8879395 89.0789318,27.8750727 C88.6446075,27.7357465 88.2019094,27.6176591 87.7731677,27.5038194 C90.1044507,21.0441255 87.2135146,15.1859128 83.4207136,12.3976901 C81.207502,10.7708022 78.6157919,9.91105769 75.9263867,9.91105769 C73.2908534,9.91105769 70.718124,10.7413511 68.4859317,12.3127352 C63.7907076,15.6177673 62.2912281,20.7326238 64.0251757,27.5222263 C63.9699082,27.5378014 63.9163155,27.5513942 63.8643975,27.5635711 C60.8238484,28.2746443 58.3711444,29.6248622 56.3661628,31.6912507 C56.2824242,31.7779048 56.0139024,31.8761694 55.7802717,31.8773021 C53.3440362,31.8928772 50.9449249,31.8948595 48.9192878,31.8948595 L23.4962444,31.8940099 C22.959759,31.8940099 22.1935507,31.9585757 21.7352214,32.5130486 C21.2780085,33.0661056 21.3486281,33.8389128 21.441578,34.3718637 C21.6894443,35.7920279 21.9303323,37.2133248 22.1714995,38.6343385 L22.4079216,40.0270339 C22.647414,41.4341717 22.8849525,42.8418758 23.1227702,44.2495799 C23.6824233,47.5633908 24.260778,50.9901917 24.8542056,54.357241 C25.2248886,56.4607265 25.3532878,58.3215239 25.2522432,60.1624984 L18.6087006,60.1624984 C16.8099952,60.163348 16.2316405,60.7407587 16.2285701,62.5386894 C16.2238249,65.1739931 16.2246623,67.8095799 16.2280118,70.4457331 C16.2302448,72.2416815 16.8094369,72.8190923 18.6114919,72.8207914 L23.141751,72.8213577 L23.141751,119.841111 L20.6134031,119.837146 C19.7221451,119.834881 18.8308871,119.832615 17.9396291,119.832615 C17.2231057,119.832615 16.5071405,119.834314 15.7906171,119.838279 C15.0325035,119.842527 14.4234447,120.122312 14.0753712,120.625812 C13.7641426,121.076073 13.7060839,121.646121 13.9118017,122.232027 C14.3221209,123.40299 15.4551044,123.40299 15.831649,123.40299 L17.7244209,123.402141 L20.9718043,123.403273 L53.3409658,123.407238 L80.4284538,123.404689 L111.518368,123.407804 C117.230179,123.407521 137.331075,123.40299 137.331075,123.40299 C137.748094,123.40299 138.165391,123.404123 138.58241,123.405822 C139.001103,123.407238 139.419517,123.408654 139.83821,123.408654 C140.36353,123.408654 140.88885,123.406388 141.41417,123.399026 C142.131252,123.388548 142.674157,123.178426 143.027813,122.774323 C143.371142,122.382398 143.509869,121.840668 143.440366,121.164426 C143.143931,118.281054 142.023787,115.852474 140.110918,113.946934 C139.817275,113.654406 139.727954,113.448248 139.728791,113.066234 C139.734653,110.24318 139.73884,101.272216 139.740794,86.3974477 C141.646405,86.0307254 143.190825,84.8688243 144.125627,83.0836369 C144.91277,81.5810664 145.036982,80.1470262 145.054009,79.8751702 L145.055125,79.856197 L145.0568,76.5902441 L147.52988,76.5902441 L147.52988,40.4775786 C147.52988,36.6339318 144.4416,35.2386877 142.365999,35.2386877 L142.365999,35.2386877 Z" id="Fill-1"></path>
        </g>
    </g>
</svg>